<?xml version="1.0" encoding="utf-8"?>
<!-- Generator: Adobe Illustrator 27.6.1, SVG Export Plug-In . SVG Version: 6.00 Build 0)  -->
<svg version="1.1" id="Layer_1" xmlns="http://www.w3.org/2000/svg" xmlns:xlink="http://www.w3.org/1999/xlink" x="0px" y="0px"
	 viewBox="0 0 100 100" style="enable-background:new 0 0 100 100;" xml:space="preserve">
<style type="text/css">
	.st0{fill:#0D5AFF;}
</style>
<path class="st0" d="M73.08,38.57c0,0-10.15-23.48-55.19-18.67l0,0l-0.04,0.01c-1.59,0.17-3.23,0.38-4.91,0.62l0,0.02l-0.44,0.06
	v7.53l3.23-0.83C25.31,25.14,57.16,19.73,73.08,38.57z M12.7,10.4c0,0,0.23,0,0.67,0.02l1.87,0.09c9.82,0.59,45.35,4.22,57.83,26.26
	c0,0-2.61-24.74-59.86-31.91l0,0l-0.08-0.01c-0.19-0.02-0.39-0.05-0.58-0.07l0,0.01l-0.07-0.01v5.6l0.22,0.01L12.7,10.4z M53.43,1
	H33.06C77.1,14.65,75.05,43.14,75.05,43.14c-18.62-29.53-62.57,3.21-62.57,3.21v15.58v9.52v29.26h26.83V71.46h14.11
	c19.46,0,35.23-15.77,35.23-35.23v0C88.66,16.77,72.88,1,53.43,1z"/>
</svg>
